HIERARCHY
ROOT Hips
{
 OFFSET 0.000000 0.000000 0.000000
 CHANNELS 6 Xposition Yposition Zposition Yrotation Xrotation Zrotation
 JOINT Chest
 {
  OFFSET 0.000000 10.354800 0.006500
  CHANNELS 3 Yrotation Xrotation Zrotation
  JOINT Chest2
  {
   OFFSET 0.000000 10.435800 -0.013200
   CHANNELS 3 Yrotation Xrotation Zrotation
   JOINT Chest3
   {
    OFFSET 0.000000 10.393700 0.000000
    CHANNELS 3 Yrotation Xrotation Zrotation
    JOINT Chest4
    {
     OFFSET 0.000000 10.383100 0.000000
     CHANNELS 3 Yrotation Xrotation Zrotation
     JOINT Neck
     {
      OFFSET 0.000000 15.694000 0.000000
      CHANNELS 3 Yrotation Xrotation Zrotation
      JOINT Head
      {
       OFFSET 0.000000 9.711000 -0.028000
       CHANNELS 3 Yrotation Xrotation Zrotation
       End Site
       {
        OFFSET 0.000000 18.578700 -0.014800
       }
      }
     }
     JOINT RightCollar
     {
      OFFSET -3.157200 10.367500 0.000000
      CHANNELS 3 Yrotation Xrotation Zrotation
      JOINT RightShoulder
      {
       OFFSET -14.482500 0.000000 0.000000
       CHANNELS 3 Yrotation Xrotation Zrotation
       JOINT RightElbow
       {
        OFFSET 0.000000 -31.707800 0.000000
        CHANNELS 3 Yrotation Xrotation Zrotation
        JOINT RightWrist
        {
         OFFSET 0.000000 -25.659300 0.000000
         CHANNELS 3 Yrotation Xrotation Zrotation
         End Site
         {
          OFFSET 0.000000 -18.994300 0.000000
         }
        }
       }
      }
     }
     JOINT LeftCollar
     {
      OFFSET 3.157200 10.367500 0.000000
      CHANNELS 3 Yrotation Xrotation Zrotation
      JOINT LeftShoulder
      {
       OFFSET 14.482500 0.000000 0.000000
       CHANNELS 3 Yrotation Xrotation Zrotation
       JOINT LeftElbow
       {
        OFFSET 0.000000 -31.707800 0.000000
        CHANNELS 3 Yrotation Xrotation Zrotation
        JOINT LeftWrist
        {
         OFFSET 0.000000 -25.659300 0.000000
         CHANNELS 3 Yrotation Xrotation Zrotation
         End Site
         {
          OFFSET 0.000000 -18.994300 0.000000
         }
        }
       }
      }
     }
    }
   }
  }
 }
 JOINT RightHip
 {
  OFFSET -8.365600 -0.032100 -0.003200
  CHANNELS 3 Yrotation Xrotation Zrotation
  JOINT RightKnee
  {
   OFFSET 0.000000 -43.980000 0.003100
   CHANNELS 3 Yrotation Xrotation Zrotation
   JOINT RightAnkle
   {
    OFFSET 0.000000 -42.882800 0.005200
    CHANNELS 3 Yrotation Xrotation Zrotation
    JOINT RightToe
    {
     OFFSET 0.000000 -4.915500 10.826300
     CHANNELS 3 Yrotation Xrotation Zrotation
     End Site
     {
      OFFSET 0.000000 -1.517500 6.175900
     }
    }
   }
  }
 }
 JOINT LeftHip
 {
  OFFSET 8.365600 -0.032100 -0.003200
  CHANNELS 3 Yrotation Xrotation Zrotation
  JOINT LeftKnee
  {
   OFFSET 0.000000 -43.980000 0.003100
   CHANNELS 3 Yrotation Xrotation Zrotation
   JOINT LeftAnkle
   {
    OFFSET 0.000000 -42.882800 0.005200
    CHANNELS 3 Yrotation Xrotation Zrotation
    JOINT LeftToe
    {
     OFFSET 0.000000 -4.915500 10.826300
     CHANNELS 3 Yrotation Xrotation Zrotation
     End Site
     {
      OFFSET 0.000000 -1.517500 6.175900
     }
    }
   }
  }
 }
}
MOTION
Frames: 16
Frame Time: 0.008333
-4.489612 126.907799 28.367100 177.912953 -27.384045 -2.728881 -1.022041 16.252500 1.970946 -0.118670 1.651421 0.221989 -0.209936 2.726250 0.348421 -0.920858 14.370901 1.760168 -2.713589 19.445347 -2.499572 -2.357904 -5.056117 -1.992125 2.633842 5.011385 -4.179862 8.845681 -14.444774 -6.556425 -108.500338 -61.453722 142.996048 -16.405847 -23.016894 -43.139665 -2.498294 8.482619 -0.419495 16.237579 -6.288053 -3.241984 152.392246 -51.415919 -178.815878 19.233457 -9.291930 42.485864 6.803714 -54.675651 3.154078 -120.347481 81.110609 -114.142188 1.806693 -14.461023 -14.876081 -0.001311 -0.003515 -0.000595 -15.558570 -54.623366 5.038442 94.007341 79.960377 87.093947 -4.461520 -7.445755 0.751716 -0.002303 0.003857 -0.001046
-4.489385 126.907285 28.364489 177.924651 -27.364575 -2.728023 -1.026387 16.251335 1.977395 -0.121700 1.650759 0.223108 -0.213950 2.713141 0.340025 -0.924212 14.401659 1.784344 -2.736204 19.445822 -2.500488 -2.382292 -5.034719 -1.971657 2.625104 5.004985 -4.196453 8.897951 -14.437238 -6.585148 -108.235954 -61.427911 142.839776 -16.462289 -22.993178 -43.106633 -2.506631 8.477532 -0.439104 16.245734 -6.269530 -3.259678 152.354677 -51.412389 -178.806212 19.264408 -9.281233 42.474802 6.792583 -54.695163 3.147853 -120.390938 81.117763 -114.191658 1.809388 -14.478420 -14.881086 -0.002146 -0.004403 -0.000974 -15.564170 -54.644277 5.048623 93.965314 79.964978 87.047071 -4.472681 -7.433302 0.752381 0.000549 0.002132 0.000249
-4.488815 126.907281 28.361308 177.931185 -27.351947 -2.726902 -1.024560 16.272020 1.997109 -0.128179 1.633247 0.212236 -0.210477 2.716567 0.342919 -0.934528 14.398676 1.785249 -2.771112 19.500072 -2.458816 -2.389523 -5.054930 -1.985719 2.618021 5.019681 -4.199181 8.936325 -14.440411 -6.610804 -107.975956 -61.415806 142.687148 -16.514596 -22.948717 -43.056686 -2.510630 8.483681 -0.449973 16.253012 -6.241064 -3.269418 152.292700 -51.413007 -178.780643 19.289856 -9.272575 42.465350 6.781756 -54.707549 3.148911 -120.486281 81.141229 -114.289114 1.784378 -14.488772 -14.886944 -0.000626 -0.003742 -0.000284 -15.560406 -54.656332 5.050583 93.936794 79.972939 87.022408 -4.499970 -7.430909 0.743579 0.000159 0.001625 0.000072
-4.488245 126.907214 28.358567 177.937895 -27.339690 -2.726832 -1.029443 16.273734 2.002887 -0.128714 1.633463 0.212710 -0.211863 2.731702 0.353872 -0.940400 14.384047 1.778900 -2.789606 19.513814 -2.446630 -2.412151 -5.039206 -1.968635 2.612956 5.036149 -4.200299 8.952685 -14.460108 -6.631942 -107.705871 -61.417812 142.524711 -16.562681 -22.880527 -42.985693 -2.512386 8.475782 -0.462227 16.261813 -6.195547 -3.273773 152.216531 -51.415203 -178.752629 19.305075 -9.263721 42.466597 6.771612 -54.717533 3.150366 -120.560994 81.159594 -114.366082 1.771177 -14.507733 -14.891601 0.001972 -0.004111 0.000895 -15.555363 -54.666134 5.053614 93.886331 79.972050 86.966848 -4.510857 -7.423886 0.746494 -0.000080 0.001820 -0.000036
-4.486976 126.907188 28.356085 177.941250 -27.329177 -2.730419 -1.030518 16.274026 2.012126 -0.129029 1.629125 0.210189 -0.211755 2.734003 0.356257 -0.943187 14.386118 1.786443 -2.801051 19.515524 -2.448193 -2.438754 -5.015877 -1.938882 2.610239 5.047416 -4.202578 9.002781 -14.436479 -6.655221 -107.570307 -61.427497 142.448912 -16.607143 -22.798286 -42.896875 -2.518575 8.496154 -0.470289 16.280770 -6.169707 -3.293026 152.093043 -51.458128 -178.677246 19.282335 -9.287335 42.447676 6.760807 -54.725754 3.157830 -120.579751 81.165842 -114.388511 1.772748 -14.527881 -14.886407 0.003038 -0.005680 0.001379 -15.549670 -54.673123 5.063599 93.854469 79.978814 86.933686 -4.515628 -7.421283 0.748654 0.002269 0.002476 0.001030
-4.487718 126.907037 28.353732 177.943837 -27.319736 -2.723974 -1.037838 16.273271 2.008810 -0.125547 1.624688 0.208264 -0.212440 2.731959 0.354976 -0.944268 14.391065 1.799853 -2.812131 19.518481 -2.451665 -2.458478 -4.999304 -1.910807 2.608935 5.047508 -4.213551 9.056746 -14.391340 -6.673563 -107.490179 -61.439074 142.408827 -16.640855 -22.717233 -42.803550 -2.528494 8.515859 -0.473397 16.298321 -6.164600 -3.316656 152.034168 -51.503479 -178.634731 19.270459 -9.318672 42.424887 6.768409 -54.733480 3.145017 -120.592823 81.153770 -114.406273 1.778367 -14.540665 -14.877909 0.002189 -0.004502 0.000994 -15.536438 -54.682476 5.059590 93.810952 79.973148 86.868416 -4.524521 -7.410907 0.775679 -0.005896 0.000496 -0.002677
-4.487329 126.906750 28.351915 177.935366 -27.309845 -2.720160 -1.036097 16.270913 2.013120 -0.122596 1.626192 0.209053 -0.212876 2.731644 0.356177 -0.942190 14.387233 1.809885 -2.830216 19.539779 -2.416435 -2.460188 -5.012609 -1.936237 2.606780 5.069011 -4.211180 9.104399 -14.364336 -6.705729 -107.430589 -61.451363 142.386446 -16.659097 -22.648067 -42.714560 -2.532232 8.541326 -0.473025 16.326224 -6.120096 -3.354414 152.031782 -51.489456 -178.666384 19.279474 -9.320730 42.412918 6.766173 -54.742523 3.153431 -120.457625 81.117518 -114.281456 1.811783 -14.538931 -14.870647 0.001668 -0.003553 0.000757 -15.523937 -54.691255 5.067881 93.799302 79.972129 86.848943 -4.557260 -7.405426 0.785966 -0.011877 -0.000300 -0.005392
-4.485885 126.906135 28.350975 177.924253 -27.296440 -2.722270 -1.029394 16.264392 2.027309 -0.128460 1.632524 0.216156 -0.209310 2.724715 0.348118 -0.935467 14.383696 1.817141 -2.835660 19.543443 -2.404409 -2.464411 -5.016155 -1.952211 2.610026 5.116264 -4.174958 9.164828 -14.322273 -6.759939 -107.469324 -61.462965 142.445215 -16.665512 -22.600802 -42.631346 -2.534173 8.571144 -0.468224 16.358216 -6.079386 -3.396133 152.041596 -51.450280 -178.721204 19.268560 -9.235019 42.494145 6.734613 -54.754316 3.182507 -120.339702 81.103517 -114.179198 1.837579 -14.528957 -14.873522 -0.000421 -0.003573 -0.000191 -15.506394 -54.702457 5.084328 93.788704 79.980515 86.839731 -4.543774 -7.400941 0.780022 -0.006554 -0.000430 -0.002976
-4.483365 126.905266 28.350779 177.914499 -27.279710 -2.731995 -1.022523 16.254904 2.049789 -0.125105 1.628537 0.212269 -0.209686 2.727067 0.354573 -0.935649 14.378852 1.810444 -2.833806 19.545559 -2.382528 -2.476729 -5.008027 -1.943016 2.612817 5.133597 -4.152601 9.191560 -14.284152 -6.778812 -107.475509 -61.474891 142.478452 -16.679436 -22.567731 -42.557397 -2.534952 8.604672 -0.455314 16.392367 -6.056553 -3.435203 152.052497 -51.473311 -178.741601 19.249359 -9.210183 42.517597 6.710197 -54.770691 3.212479 -120.210548 81.089630 -114.051948 1.858677 -14.513982 -14.881966 0.000263 -0.004656 0.000119 -15.462183 -54.718081 5.093360 93.769887 80.005656 86.849956 -4.555894 -7.399137 0.781686 0.004266 -0.001639 0.001937
-4.482624 126.905042 28.349182 177.907986 -27.271569 -2.733820 -1.021225 16.252277 2.059710 -0.121770 1.626313 0.210870 -0.210975 2.729007 0.360824 -0.931928 14.375276 1.817781 -2.839776 19.543657 -2.380548 -2.481681 -5.006786 -1.930200 2.608211 5.145931 -4.143429 9.214483 -14.253559 -6.793043 -107.432247 -61.487835 142.474473 -16.649480 -22.588283 -42.537043 -2.538908 8.625007 -0.458992 16.427329 -6.028138 -3.466693 152.110696 -51.542879 -178.745978 19.272086 -9.228896 42.468930 6.683942 -54.777865 3.237459 -120.131556 81.084978 -113.981061 1.864363 -14.490390 -14.889262 0.001480 -0.004185 0.000672 -15.431716 -54.725873 5.091518 93.778225 80.009524 86.865420 -4.568228 -7.397217 0.785043 0.004232 -0.001636 0.001922
-4.482400 126.905516 28.346272 177.901019 -27.271931 -2.732958 -1.023591 16.258846 2.066607 -0.129888 1.631483 0.221123 -0.202814 2.722848 0.354649 -0.931009 14.371107 1.829431 -2.839544 19.536993 -2.378724 -2.483131 -5.009543 -1.910631 2.608665 5.151341 -4.154734 9.239400 -14.219823 -6.787220 -107.365076 -61.502190 142.450689 -16.605791 -22.622436 -42.527035 -2.541455 8.650042 -0.470651 16.465078 -6.006856 -3.500552 152.136405 -51.555618 -178.756950 19.271856 -9.220786 42.456578 6.654537 -54.778153 3.265861 -120.110221 81.085309 -113.974803 1.856884 -14.447787 -14.885466 0.000927 0.000865 0.000421 -15.403492 -54.724924 5.088514 93.861787 80.000235 86.940032 -4.593186 -7.408882 0.804142 -0.002287 -0.000547 -0.001038
-4.481549 126.905104 28.345315 177.884632 -27.261275 -2.732241 -1.020864 16.254945 2.077466 -0.127669 1.629242 0.220359 -0.210060 2.724989 0.366524 -0.921814 14.363994 1.846585 -2.844458 19.526324 -2.383871 -2.485607 -5.007518 -1.928604 2.605546 5.156147 -4.178496 9.270433 -14.188001 -6.778879 -107.398347 -61.519582 142.487822 -16.649967 -22.600567 -42.495712 -2.556888 8.697086 -0.483383 16.506019 -6.012877 -3.552433 152.156277 -51.570892 -178.748353 19.285407 -9.228885 42.405644 6.642153 -54.789016 3.286326 -120.080494 81.089397 -113.945212 1.857869 -14.431586 -14.891237 0.003001 0.002362 0.001363 -15.394969 -54.734089 5.103897 93.906190 79.997147 86.979502 -4.606054 -7.413161 0.805626 -0.006661 0.000129 -0.003024
-4.480339 126.904736 28.344438 177.872891 -27.250582 -2.736150 -1.018059 16.247949 2.087671 -0.124208 1.627732 0.220007 -0.216477 2.725658 0.370395 -0.921349 14.360003 1.854992 -2.839928 19.522357 -2.389224 -2.479369 -5.042042 -1.873170 2.610564 5.169952 -4.139267 9.313483 -14.164598 -6.812015 -107.338756 -61.520147 142.449974 -16.627403 -22.620392 -42.527680 -2.552850 8.707337 -0.497470 16.546094 -5.978841 -3.579953 152.167157 -51.569478 -178.764322 19.263970 -9.210092 42.487495 6.627436 -54.799761 3.305494 -120.086231 81.095335 -113.951353 1.860472 -14.428405 -14.893299 0.001614 0.003900 0.000733 -15.377060 -54.743271 5.116071 93.930338 80.002353 87.008656 -4.620118 -7.417928 0.811042 -0.006085 0.000128 -0.002763
-4.479149 126.904358 28.343663 177.861093 -27.239787 -2.740326 -1.008826 16.238084 2.097688 -0.127609 1.628431 0.221226 -0.220489 2.725716 0.374236 -0.924185 14.354799 1.865728 -2.835096 19.519264 -2.397093 -2.473803 -5.063706 -1.851657 2.619296 5.177489 -4.132845 9.339769 -14.148833 -6.815539 -107.252643 -61.506574 142.385108 -16.570178 -22.637530 -42.555775 -2.547714 8.717911 -0.514693 16.601709 -5.936831 -3.614367 152.166456 -51.548231 -178.818157 19.258415 -9.219732 42.582028 6.612434 -54.811368 3.322829 -120.129128 81.102366 -113.991396 1.863210 -14.433280 -14.902276 0.000633 0.005631 0.000287 -15.363841 -54.752896 5.129148 93.943502 80.007139 87.028577 -4.626512 -7.419808 0.813600 -0.003616 -0.000460 -0.001642
-4.477978 126.903342 28.344198 177.846977 -27.221420 -2.743904 -1.006650 16.225607 2.108906 -0.127744 1.627324 0.222009 -0.216249 2.721728 0.375625 -0.923659 14.349974 1.872909 -2.833313 19.509176 -2.387071 -2.467199 -5.082926 -1.842160 2.622098 5.183581 -4.121090 9.353449 -14.141801 -6.834540 -107.154454 -61.476169 142.310759 -16.571524 -22.659224 -42.617707 -2.557526 8.735676 -0.521333 16.661772 -5.915724 -3.654564 152.165668 -51.560196 -178.820245 19.279012 -9.249328 42.621341 6.596733 -54.830243 3.340358 -120.185358 81.108137 -114.045769 1.868020 -14.458761 -14.904990 -0.000193 0.006684 -0.000088 -15.353011 -54.771000 5.144151 93.959211 80.009408 87.051477 -4.626061 -7.422019 0.814582 -0.001014 -0.000513 -0.000461
-4.478727 126.903829 28.341509 177.845740 -27.222168 -2.742301 -1.018749 16.231835 2.111994 -0.120830 1.623892 0.219081 -0.219409 2.719900 0.377627 -0.923613 14.345413 1.880522 -2.822546 19.480204 -2.357036 -2.466803 -5.087783 -1.850608 2.623711 5.186226 -4.111935 9.389611 -14.123070 -6.824216 -107.107744 -61.468248 142.270318 -16.572221 -22.686676 -42.684622 -2.568677 8.750689 -0.525545 16.716310 -5.898064 -3.697851 152.144440 -51.550649 -178.766517 19.297158 -9.250067 42.646441 6.581882 -54.824835 3.338773 -120.339116 81.113000 -114.180098 1.861150 -14.547339 -14.926644 0.005135 -0.001847 0.002331 -15.312456 -54.769452 5.126581 93.979465 80.024947 87.071998 -4.630378 -7.429186 0.832586 -0.001634 0.000382 -0.000742
